<svg width="20" height="20" viewBox="0 0 20 20" fill="none" xmlns="http://www.w3.org/2000/svg">
<path fill-rule="evenodd" clip-rule="evenodd" d="M7.97726 5.95604C7.97726 5.0989 8.70517 4.76923 9.91077 4.76923C11.6396 4.76923 13.8233 5.27472 15.5521 6.17582V1.01099C13.664 0.285714 11.7988 0 9.91077 0C5.2931 0 2.22223 2.32967 2.22223 6.21978C2.22223 12.2857 10.8661 11.3187 10.8661 13.9341C10.8661 14.9451 9.95626 15.2747 8.68242 15.2747C6.79441 15.2747 4.38321 14.5275 2.47245 13.5165V18.7473C4.58793 19.6264 6.72617 20 8.68242 20C13.4138 20 16.6667 17.7363 16.6667 13.8022C16.6439 7.25275 7.97726 8.41758 7.97726 5.95604Z" fill="#635BFF"/>
</svg>
